<svg width="231" height="332" viewBox="0 0 231 332" fill="none" xmlns="http://www.w3.org/2000/svg">
<path opacity="0.1" d="M133.2 332C186.992 332 230.6 324.971 230.6 316.3C230.6 307.629 186.992 300.6 133.2 300.6C79.4073 300.6 35.7998 307.629 35.7998 316.3C35.7998 324.971 79.4073 332 133.2 332Z" fill="#5FB2BD"/>
<path d="M136.4 16.5H130.1V157.7H136.4V16.5Z" fill="#535461"/>
<path d="M175.8 157.2L175.4 163.6L174.8 172.6L174.6 176.3L174 185.3L173.8 189L173.2 198L166.9 300.1C166.3 309.2 158.8 316.3 149.6 316.3H116.7C107.5 316.3 100 309.2 99.4 300L93.1 197.9L92.5 188.9L92.3 185.2L91.7 176.2L91.5 172.5L90.9 163.5L90.5 157.1C90.2 152.1 94 147.9 99 147.6C99.2 147.6 99.3 147.6 99.5 147.6H166.7C171.7 147.6 175.7 151.7 175.6 156.7C175.8 156.9 175.8 157 175.8 157.2Z" fill="#3F3D56"/>
<path d="M175.4 163.6L174.8 172.6H91.5996L91.0996 163.6H175.4Z" fill="#9D9CB5"/>
<path d="M174.6 176.3L174 185.3H92.4004L91.9004 176.3H174.6Z" fill="#9D9CB5"/>
<path d="M173.8 189L173.2 198H93.2002L92.7002 189H173.8Z" fill="#9D9CB5"/>
<path d="M81.5 69.4C118 95.8 133.2 137.1 133.2 137.1C133.2 137.1 89.2 135.6 52.7 109.2C16.2 82.8 1 41.5 1 41.5C1 41.5 45 43 81.5 69.4Z" fill="#5FB2BD"/>
<path d="M1 41.5C1 41.5 46.7 66.8 61.3 87.8C75.9 108.8 133.2 137.1 133.2 137.1" stroke="#535461" stroke-width="2" stroke-miterlimit="10"/>
<path d="M105.1 16.2C125 30.6 133.3 53.1 133.3 53.1C133.3 53.1 109.3 52.3 89.5002 37.9C69.7002 23.5 61.2002 1 61.2002 1C61.2002 1 85.2002 1.8 105.1 16.2Z" fill="#5FB2BD"/>
<path d="M61.2002 1C61.2002 1 86.1002 14.8 94.0002 26.2C101.9 37.6 133.2 53 133.2 53" stroke="#535461" stroke-width="2" stroke-miterlimit="10"/>
<path d="M162.1 51.9C139.3 77 134.4 109.8 134.4 109.8C134.4 109.8 166.6 101.9 189.4 76.8C212.2 51.7 217.1 18.9 217.1 18.9C217.1 18.9 184.9 26.8 162.1 51.9Z" fill="#5FB2BD"/>
<path d="M217.1 18.9C217.1 18.9 187.4 44.6 179.8 62.3C172.2 80 134.5 109.8 134.5 109.8" stroke="#535461" stroke-width="2" stroke-miterlimit="10"/>
</svg>
