<svg width="109" height="27" viewBox="0 0 109 27" fill="none" xmlns="http://www.w3.org/2000/svg">
<path d="M0.984 26H6.456V18.512L11.896 26H18.68L11.192 17.104L18.616 8.144H11.864L6.456 15.408V2.32H0.984V26ZM20.7653 26H26.2373V2.32H20.7653V26ZM30.2028 26H35.6748V8.144H30.2028V26ZM32.9548 6.288C34.8748 6.288 36.1868 4.976 36.1868 3.344C36.1868 1.68 34.8748 0.367998 32.9548 0.367998C31.0028 0.367998 29.6908 1.68 29.6908 3.344C29.6908 4.976 31.0028 6.288 32.9548 6.288ZM51.9603 26H57.4003V15.568C57.4003 10.768 54.6483 7.952 50.5203 7.952C48.1203 7.952 46.2003 9.008 45.1123 10.512V8.144H39.6403V26H45.1123V16.304C45.1123 13.872 46.4563 12.528 48.5363 12.528C50.6163 12.528 51.9603 13.872 51.9603 16.304V26ZM61.2028 26H66.6748V8.144H61.2028V26ZM63.9548 6.288C65.8748 6.288 67.1868 4.976 67.1868 3.344C67.1868 1.68 65.8748 0.367998 63.9548 0.367998C62.0028 0.367998 60.6908 1.68 60.6908 3.344C60.6908 4.976 62.0028 6.288 63.9548 6.288Z" fill="#083884"/>
<path d="M70.6403 26H76.1123V18.512L81.5523 26H88.3363L80.8483 17.104L88.2723 8.144H81.5203L76.1123 15.408V2.32H70.6403V26ZM108.054 8.144H102.582V17.84C102.582 20.272 101.238 21.616 99.1255 21.616C97.0775 21.616 95.7015 20.272 95.7015 17.84V8.144H90.2615V18.576C90.2615 23.344 93.0455 26.192 97.1735 26.192C99.5735 26.192 101.494 25.104 102.582 23.568V26H108.054V8.144Z" fill="#77BFBB"/>
</svg>
